<svg xmlns="http://www.w3.org/2000/svg" xmlns:xlink="http://www.w3.org/1999/xlink" width="40" zoomAndPan="magnify" viewBox="0 0 30 30.000001" height="40" preserveAspectRatio="xMidYMid meet" version="1.0"><defs><clipPath id="a9f6ea68ba"><path d="M 0.484375 0 L 29.515625 0 L 29.515625 29.03125 L 0.484375 29.03125 Z M 0.484375 0 " clip-rule="nonzero"/></clipPath><clipPath id="947e0fcf57"><path d="M 4.445312 19 L 22 19 L 22 24.675781 L 4.445312 24.675781 Z M 4.445312 19 " clip-rule="nonzero"/></clipPath><clipPath id="d8eade771b"><path d="M 4.445312 18 L 22 18 L 22 24.675781 L 4.445312 24.675781 Z M 4.445312 18 " clip-rule="nonzero"/></clipPath><clipPath id="eca6d57f1e"><path d="M 20 18 L 24.765625 18 L 24.765625 23 L 20 23 Z M 20 18 " clip-rule="nonzero"/></clipPath><clipPath id="1b1c6c8dcd"><path d="M 19 18 L 24.765625 18 L 24.765625 24 L 19 24 Z M 19 18 " clip-rule="nonzero"/></clipPath><clipPath id="e87055f6c5"><path d="M 7 3.628906 L 21 3.628906 L 21 20 L 7 20 Z M 7 3.628906 " clip-rule="nonzero"/></clipPath></defs><g clip-path="url(#a9f6ea68ba)"><path fill="#ffffff" d="M 0.484375 0 L 29.515625 0 L 29.515625 29.03125 L 0.484375 29.03125 Z M 0.484375 0 " fill-opacity="1" fill-rule="nonzero"/><path fill="#ffffff" d="M 0.484375 0 L 29.515625 0 L 29.515625 29.03125 L 0.484375 29.03125 Z M 0.484375 0 " fill-opacity="1" fill-rule="nonzero"/></g><g clip-path="url(#947e0fcf57)"><path fill="#ffda00" d="M 20.972656 20.636719 C 20.871094 20.636719 20.777344 20.660156 20.691406 20.703125 C 20.589844 20.742188 20.484375 20.789062 20.386719 20.832031 L 20.246094 20.894531 L 20.058594 20.96875 C 18.03125 21.804688 15.902344 22.292969 13.933594 22.335938 C 13.863281 22.335938 13.789062 22.335938 13.71875 22.335938 C 10.621094 22.335938 8.097656 20.878906 5.546875 19.4375 C 5.464844 19.390625 5.375 19.367188 5.277344 19.367188 C 5.15625 19.363281 5.050781 19.40625 4.960938 19.492188 C 4.867188 19.578125 4.824219 19.6875 4.824219 19.816406 C 4.828125 19.980469 4.894531 20.113281 5.023438 20.210938 C 7.414062 22.328125 10.039062 24.289062 13.566406 24.292969 L 13.773438 24.292969 C 16.015625 24.238281 18.554688 23.46875 20.523438 22.210938 L 20.535156 22.203125 C 20.800781 22.042969 21.050781 21.863281 21.292969 21.671875 C 21.453125 21.554688 21.539062 21.394531 21.546875 21.195312 C 21.542969 21.035156 21.484375 20.902344 21.371094 20.792969 C 21.261719 20.683594 21.125 20.632812 20.972656 20.636719 Z M 20.972656 20.636719 " fill-opacity="1" fill-rule="nonzero"/></g><g clip-path="url(#d8eade771b)"><path stroke-linecap="round" transform="matrix(0.0934617, 0, 0, 0.0951125, -8.726708, -9.591597)" fill="none" stroke-linejoin="round" d="M 317.770494 317.816592 C 316.683819 317.816592 315.680734 318.063011 314.761239 318.514779 C 313.674564 318.925477 312.546094 319.418315 311.501214 319.870083 L 309.996586 320.5272 L 307.990416 321.307526 C 286.298706 330.096464 263.520319 335.23019 242.455536 335.681958 C 241.703223 335.681958 240.909114 335.681958 240.1568 335.681958 C 207.013203 335.681958 180.013502 320.36292 152.721233 305.208162 C 151.843534 304.715324 150.882244 304.468905 149.837364 304.468905 C 148.541713 304.427835 147.413242 304.879603 146.451953 305.783139 C 145.448868 306.686675 144.989121 307.836629 144.989121 309.191933 C 145.030916 310.916865 145.741434 312.313238 147.120676 313.339983 C 172.699341 335.599819 200.785718 356.216861 238.526787 356.257931 L 240.741933 356.257931 C 264.73238 355.682954 291.899263 347.592202 312.964046 334.367724 L 313.089431 334.285585 C 315.931505 332.601723 318.606398 330.712512 321.197701 328.700091 C 322.911304 327.467997 323.830799 325.784135 323.914389 323.689575 C 323.872594 322.005713 323.245666 320.609339 322.033605 319.459385 C 320.863339 318.30943 319.400507 317.775523 317.770494 317.816592 Z M 317.770494 317.816592 " stroke="#ffffff" stroke-width="8" stroke-opacity="1" stroke-miterlimit="4"/></g><g clip-path="url(#eca6d57f1e)"><path fill="#ffda00" d="M 24.378906 19.324219 C 24.378906 19.136719 24.332031 18.96875 24.238281 18.8125 L 24.230469 18.800781 L 24.21875 18.785156 C 24.144531 18.707031 24.054688 18.644531 23.953125 18.609375 C 23.679688 18.5 23.277344 18.445312 22.796875 18.441406 C 22.421875 18.441406 22.050781 18.480469 21.683594 18.5625 L 21.296875 18.664062 L 21.289062 18.664062 L 21.070312 18.746094 C 20.820312 18.851562 20.585938 18.988281 20.367188 19.148438 C 20.207031 19.253906 20.121094 19.402344 20.113281 19.59375 C 20.113281 19.726562 20.160156 19.832031 20.261719 19.917969 C 20.347656 19.984375 20.445312 20.019531 20.558594 20.019531 C 20.578125 20.019531 20.597656 20.019531 20.621094 20.015625 L 20.652344 20.015625 C 20.839844 19.972656 21.121094 19.945312 21.441406 19.898438 C 21.714844 19.867188 21.988281 19.847656 22.265625 19.847656 C 22.417969 19.84375 22.566406 19.855469 22.714844 19.882812 C 22.757812 19.890625 22.796875 19.902344 22.835938 19.917969 C 22.84375 19.921875 22.847656 19.925781 22.851562 19.929688 C 22.863281 19.964844 22.867188 20.003906 22.863281 20.042969 C 22.863281 20.257812 22.777344 20.660156 22.652344 21.050781 C 22.53125 21.445312 22.386719 21.835938 22.289062 22.097656 C 22.261719 22.160156 22.25 22.226562 22.25 22.296875 C 22.246094 22.417969 22.289062 22.519531 22.371094 22.605469 C 22.457031 22.691406 22.558594 22.734375 22.675781 22.730469 C 22.816406 22.726562 22.9375 22.679688 23.042969 22.589844 C 24.023438 21.691406 24.367188 20.257812 24.378906 19.449219 Z M 24.378906 19.324219 " fill-opacity="1" fill-rule="nonzero"/></g><g clip-path="url(#1b1c6c8dcd)"><path stroke-linecap="round" transform="matrix(0.0934617, 0, 0, 0.0951125, -8.726708, -9.591597)" fill="none" stroke-linejoin="round" d="M 354.215912 304.017137 C 354.215912 302.045787 353.71437 300.279785 352.711285 298.636993 L 352.627694 298.513783 L 352.502309 298.349504 C 351.7082 297.528108 350.74691 296.870991 349.660235 296.501363 C 346.734571 295.351408 342.429665 294.776431 337.288854 294.735361 C 333.276515 294.735361 329.305971 295.146059 325.377221 296.008525 L 321.239496 297.07634 L 321.155906 297.07634 L 318.815374 297.938806 C 316.140481 299.047691 313.632769 300.485134 311.292238 302.168996 C 309.578634 303.277881 308.65914 304.838533 308.575549 306.850954 C 308.575549 308.247327 309.077092 309.356212 310.163767 310.259748 C 311.083262 310.957935 312.128142 311.327563 313.340203 311.327563 C 313.549179 311.327563 313.758155 311.327563 314.008926 311.286493 L 314.343287 311.286493 C 316.349457 310.834725 319.358712 310.547237 322.785919 310.054399 C 325.711583 309.72584 328.637247 309.520491 331.604707 309.520491 C 333.23472 309.479422 334.822937 309.602631 336.411155 309.89012 C 336.870902 309.972259 337.288854 310.095469 337.706807 310.259748 C 337.790397 310.300818 337.832192 310.341888 337.873987 310.382957 C 337.999373 310.752586 338.041168 311.163284 337.999373 311.573982 C 337.999373 313.832821 337.079878 318.063011 335.742432 322.169992 C 334.446781 326.318042 332.900358 330.425023 331.855478 333.1767 C 331.562912 333.833817 331.437526 334.532004 331.437526 335.27126 C 331.395731 336.544424 331.855478 337.612239 332.733177 338.515775 C 333.652672 339.419311 334.739347 339.871078 335.993203 339.830009 C 337.497831 339.788939 338.793482 339.296101 339.921952 338.351496 C 350.412549 328.90544 354.090527 313.832821 354.215912 305.331371 Z M 354.215912 304.017137 " stroke="#ffffff" stroke-width="8" stroke-opacity="1" stroke-miterlimit="4"/></g><path fill="#ffda00" d="M 15.410156 9.695312 C 14.832031 9.738281 14.167969 9.785156 13.503906 9.875 C 12.484375 10.011719 11.460938 10.191406 10.621094 10.597656 C 8.980469 11.273438 7.871094 12.71875 7.871094 14.839844 C 7.871094 17.5 9.550781 18.855469 11.683594 18.855469 C 12.300781 18.859375 12.90625 18.78125 13.5 18.628906 C 14.34375 18.359375 15.054688 17.863281 15.898438 16.960938 C 16.382812 17.636719 16.519531 17.953125 17.359375 18.671875 C 17.582031 18.761719 17.804688 18.761719 17.980469 18.625 C 18.511719 18.175781 19.445312 17.363281 19.929688 16.914062 C 20.152344 16.734375 20.109375 16.460938 19.976562 16.238281 C 19.488281 15.605469 19 15.0625 19 13.84375 L 19 9.785156 C 19 8.070312 19.132812 6.488281 17.890625 5.3125 C 16.871094 4.363281 15.273438 4.003906 14.035156 4.003906 L 13.5 4.003906 C 11.242188 4.136719 8.847656 5.132812 8.3125 7.976562 C 8.21875 8.335938 8.492188 8.472656 8.667969 8.515625 L 11.152344 8.832031 C 11.417969 8.785156 11.550781 8.5625 11.59375 8.335938 C 11.816406 7.34375 12.617188 6.847656 13.5 6.757812 L 13.679688 6.757812 C 14.210938 6.757812 14.789062 6.984375 15.097656 7.433594 C 15.453125 7.976562 15.410156 8.699219 15.410156 9.328125 Z M 14.917969 15.066406 C 14.625 15.683594 14.152344 16.074219 13.5 16.238281 C 13.410156 16.238281 13.277344 16.285156 13.144531 16.285156 C 12.167969 16.285156 11.59375 15.515625 11.59375 14.386719 C 11.59375 12.945312 12.433594 12.265625 13.5 11.949219 C 14.128906 11.820312 14.761719 11.757812 15.40625 11.769531 L 15.40625 12.3125 C 15.410156 13.347656 15.453125 14.160156 14.917969 15.066406 Z M 14.917969 15.066406 " fill-opacity="1" fill-rule="nonzero"/><g clip-path="url(#e87055f6c5)"><path stroke-linecap="round" transform="matrix(0.0934617, 0, 0, 0.0951125, -8.726708, -9.591597)" fill="none" stroke-linejoin="round" d="M 258.254124 202.780064 C 252.068433 203.231832 244.963249 203.72467 237.858064 204.669276 C 226.949516 206.106719 215.999172 207.99593 207.013203 212.26719 C 189.459218 219.372266 177.58938 234.568095 177.58938 256.869 C 177.58938 284.837538 195.561317 299.088761 218.381499 299.088761 C 224.985141 299.12983 231.463398 298.308434 237.816269 296.706712 C 246.844033 293.872895 254.45076 288.65703 263.478524 279.169904 C 268.661129 286.274981 270.123962 289.601635 279.10993 297.15848 C 281.492257 298.103085 283.874584 298.103085 285.755368 296.665642 C 291.439516 291.942614 301.428569 283.400095 306.611175 278.677067 C 308.993501 276.787856 308.533754 273.912969 307.112717 271.57199 C 301.888317 264.918682 296.663916 259.209979 296.663916 246.396199 L 296.663916 203.72467 C 296.663916 185.695025 298.084953 169.061753 284.794078 156.699742 C 273.88553 146.719779 256.791291 142.941356 243.542212 142.941356 L 237.816269 142.941356 C 213.658641 144.33773 188.038181 154.810531 182.312238 184.70935 C 181.309153 188.487772 184.234817 189.925215 186.115601 190.376983 L 212.697351 193.703637 C 215.539425 193.2108 216.960462 190.869821 217.420209 188.487772 C 219.802536 178.056041 228.370553 172.840176 237.816269 171.89557 L 239.738848 171.89557 C 245.422996 171.89557 251.608686 174.277619 254.910507 179.000647 C 258.713871 184.70935 258.254124 192.307264 258.254124 198.919503 Z M 252.987928 259.251048 C 249.853288 265.740078 244.796068 269.847058 237.816269 271.57199 C 236.854979 271.57199 235.433942 272.064828 234.012905 272.064828 C 223.564104 272.064828 217.420209 263.974076 217.420209 252.104902 C 217.420209 236.950143 226.406178 229.803997 237.816269 226.477343 C 244.545297 225.122039 251.31612 224.464922 258.212328 224.588132 L 258.212328 230.296835 C 258.254124 241.180333 258.713871 249.722853 252.987928 259.251048 Z M 252.987928 259.251048 " stroke="#ffffff" stroke-width="8" stroke-opacity="1" stroke-miterlimit="4"/></g></svg>